<svg id="visual" viewBox="0 0 900 600" width="900" height="600" xmlns="http://www.w3.org/2000/svg" xmlns:xlink="http://www.w3.org/1999/xlink" version="1.1"><rect x="0" y="0" width="900" height="600" fill="#f6fa73"></rect><path d="M0 392L129 361L257 415L386 441L514 439L643 440L771 361L900 408L900 601L771 601L643 601L514 601L386 601L257 601L129 601L0 601Z" fill="#008756"></path><path d="M0 443L129 440L257 397L386 417L514 468L643 475L771 422L900 472L900 601L771 601L643 601L514 601L386 601L257 601L129 601L0 601Z" fill="#9e8c00"></path><path d="M0 497L129 466L257 478L386 510L514 505L643 445L771 438L900 458L900 601L771 601L643 601L514 601L386 601L257 601L129 601L0 601Z" fill="#f5730a"></path><path d="M0 493L129 519L257 536L386 490L514 496L643 535L771 518L900 485L900 601L771 601L643 601L514 601L386 601L257 601L129 601L0 601Z" fill="#9e8c00"></path><path d="M0 552L129 547L257 548L386 553L514 545L643 569L771 539L900 558L900 601L771 601L643 601L514 601L386 601L257 601L129 601L0 601Z" fill="#008756"></path></svg>